{"title":"Paper Towns {2015} CAM XVID MP3-MRG","uid":12290961,"size":1284389462,"categoryP":"video","categoryS":"movies","magnet":"?xt=urn:btih:3ed203f7e13d16073758f7e1ea3f464bb82f671c&amp;dn=Paper+Towns+%7B2015%7D+CAM+XVID+MP3-MRG&amp;tr=udp%3A%2F%2Ftracker.openbittorrent.com%3A80&amp;tr=udp%3A%2F%2Fopen.demonii.com%3A1337&amp;tr=udp%3A%2F%2Ftracker.coppersurfer.tk%3A6969&amp;tr=udp%3A%2F%2Fexodus.desync.com%3A6969","seeders":161,"leechers":60,"uploader":".BONE.","files":12,"time":1440549956,"description":"Paper Towns {2015} HQCAM XVID MP3-MRG\n &lt;a href=&quot;\nhttp://www.imdb.com/title/tt3622592/&quot; rel=&quot;nofollow&quot; target=&quot;_NEW&quot;&gt;\nhttp://www.imdb.com/title/tt3622592/&lt;/a&gt;\n\n\nNfo: used latin vid fixed perspective..added few filters denoised..smoothed..\nect...then sync to audio frm Comptuts...ty bro...:)\n\nFormat : AVI\nFormat/Info : Audio Video Interleave\nFile size : 1.19 GiB\nDuration : 1h 42mn\nOverall bit rate : 1 666 Kbps\nWriting library : VirtualDub build 35491/release\n\nVideo\nID : 0\nFormat : MPEG-4 Visual\nFormat profile : Advanced Simple@L5\nFormat settings, BVOP : 2\nFormat settings, QPel : No\nFormat settings, GMC : No warppoints\nFormat settings, Matrix : Default (H.263)\nMuxing mode : Packed bitstream\nCodec ID : XVID\nCodec ID/Hint : XviD\nDuration : 1h 42mn\nBit rate : 1 528 Kbps\nWidth : 680 pixels\nHeight : 340 pixels\nDisplay aspect ratio : 2.000\nFrame rate : 25.000 fps\nColor space : YUV\nChroma subsampling : 4:2:0\nBit depth : 8 bits\nScan type : Progressive\nCompression mode : Lossy\nBits/(Pixel*Frame) : 0.264\nStream size : 1.10 GiB (92%)\nWriting library : XviD 67\n\nAudio\nID : 1\nFormat : MPEG Audio\nFormat version : Version 1\nFormat profile : Layer 3\nCodec ID : 55\nCodec ID/Hint : MP3\nDuration : 1h 42mn\nBit rate mode : Constant\nBit rate : 128 Kbps\nChannel(s) : 2 channels\nSampling rate : 44.1 KHz\nCompression mode : Lossy\nStream size : 94.0 MiB (8%)\nAlignment : Split accross interleaves\nInterleave, duration : 40 ms (1.00 video frame)\nInterleave, preload duratio : 500 ms\nWriting library : LAMELAME_MAJOR_VERSI &lt;a href=&quot;\nhttp://extraimago.com/images/2015/08/25/MURD3Rvlcsnap-2015-08-25-19h31m03s443.th.png&quot; rel=&quot;nofollow&quot; target=&quot;_NEW&quot;&gt;\nhttp://extraimago.com/images/2015/08/25/MURD3Rvlcsnap-2015-08-25-19h31m03s443.th.png&lt;/a&gt; &lt;a href=&quot;\nhttp://extraimago.com/images/2015/08/25/MURD3Rvlcsnap-2015-08-25-19h31m24s078.th.png&quot; rel=&quot;nofollow&quot; target=&quot;_NEW&quot;&gt;\nhttp://extraimago.com/images/2015/08/25/MURD3Rvlcsnap-2015-08-25-19h31m24s078.th.png&lt;/a&gt; &lt;a href=&quot;\nhttp://extraimago.com/images/2015/08/25/MURD3Rvlcsnap-2015-08-25-19h31m59s679.th.png&quot; rel=&quot;nofollow&quot; target=&quot;_NEW&quot;&gt;\nhttp://extraimago.com/images/2015/08/25/MURD3Rvlcsnap-2015-08-25-19h31m59s679.th.png&lt;/a&gt; &lt;a href=&quot;\nhttp://extraimago.com/images/2015/08/25/MURD3Rvlcsnap-2015-08-25-19h32m16s472.th.png&quot; rel=&quot;nofollow&quot; target=&quot;_NEW&quot;&gt;\nhttp://extraimago.com/images/2015/08/25/MURD3Rvlcsnap-2015-08-25-19h32m16s472.th.png&lt;/a&gt; &lt;a href=&quot;\nhttp://extraimago.com/images/2015/08/25/MURD3Rvlcsnap-2015-08-25-19h32m16s472.th.png&quot; rel=&quot;nofollow&quot; target=&quot;_NEW&quot;&gt;\nhttp://extraimago.com/images/2015/08/25/MURD3Rvlcsnap-2015-08-25-19h32m16s472.th.png&lt;/a&gt;","torrent":{"xt":"urn:btih:3ed203f7e13d16073758f7e1ea3f464bb82f671c","amp;dn":"Paper+Towns+%7B2015%7D+CAM+XVID+MP3-MRG","amp;tr":["udp%3A%2F%2Ftracker.openbittorrent.com%3A80","udp%3A%2F%2Fopen.demonii.com%3A1337","udp%3A%2F%2Ftracker.coppersurfer.tk%3A6969","udp%3A%2F%2Fexodus.desync.com%3A6969"],"infoHash":"3ed203f7e13d16073758f7e1ea3f464bb82f671c","infoHashBuffer":{"type":"Buffer","data":[62,210,3,247,225,61,22,7,55,88,247,225,234,63,70,75,184,47,103,28]},"announce":[],"urlList":[]}}